<svg width="220" height="34" viewBox="0 0 220 34" fill="none" xmlns="http://www.w3.org/2000/svg">
<path d="M0 4.62473C0 2.29924 1.88518 0.414062 4.21067 0.414062H86.9741V33.5854H4.21067C1.88518 33.5854 0 31.7002 0 29.3747V4.62473Z" fill="#E90000"/>
<path d="M16.5482 9.88766L21.6852 24.625H17.7693L16.9903 22.1407H11.6848L10.9059 24.625H6.98994L12.127 9.88766H16.5482ZM12.4428 19.3196H16.2324L14.3376 13.2141L12.4428 19.3196ZM29.9313 13.4667C32.2262 13.4667 33.5104 14.9194 33.5104 17.4669V24.625H29.7419V18.4564C29.7419 17.109 29.2366 16.4774 28.2471 16.4774C27.1734 16.4774 26.6049 17.2563 26.6049 18.8564V24.625H22.8364V13.7194H26.3523L26.5628 15.3194C27.3418 14.0983 28.4576 13.4667 29.9313 13.4667ZM46.5181 24.625H43.0022L42.7916 23.0249C42.16 24.1829 40.8968 24.8776 39.381 24.8776C36.6862 24.8776 34.8966 22.6249 34.8966 19.1722C34.8966 15.7615 36.7072 13.4667 39.381 13.4667C40.8758 13.4667 42.139 14.1615 42.7495 15.2984V9.67713H46.5181V24.625ZM42.8338 19.1722C42.8338 17.4037 42.0337 16.3089 40.7705 16.3089C39.5284 16.3089 38.7283 17.4248 38.7283 19.1722C38.7283 20.9196 39.5284 22.0354 40.7705 22.0354C42.0337 22.0354 42.8338 20.9407 42.8338 19.1722ZM55.5936 13.6141V17.0037C55.383 16.9405 55.1093 16.8984 54.7514 16.8984C53.0461 16.8984 52.0566 17.9511 52.0566 19.7827V24.625H48.288V13.7194H51.804L52.0145 15.3405C52.5619 14.1615 53.5514 13.5088 54.7093 13.5088C55.0251 13.5088 55.3409 13.5509 55.5936 13.6141ZM67.3775 19.2985V19.9512H59.9036C59.9036 21.3407 60.6615 22.2039 61.9457 22.2039C62.7458 22.2039 63.3563 21.846 63.63 21.1512H67.3143C66.8933 23.3829 64.6195 24.8776 61.8615 24.8776C58.3667 24.8776 56.114 22.5828 56.114 19.1722C56.114 15.7405 58.2825 13.4667 61.7984 13.4667C65.3564 13.4667 67.3775 15.6984 67.3775 19.2985ZM59.9457 17.8458H63.6721C63.5247 16.73 62.8721 16.0773 61.8405 16.0773C60.7668 16.0773 60.072 16.7511 59.9457 17.8458ZM74.1554 13.4667C77.3765 13.4667 79.0608 14.9194 79.0608 17.6774V24.625H75.6712L75.4607 23.2776C74.8291 24.3303 73.7554 24.8566 72.1974 24.8566C69.7973 24.8566 68.3657 23.6144 68.3657 21.5723C68.3657 19.088 70.4921 18.0143 75.3133 18.0143V17.8248C75.3133 16.6247 74.8501 16.0773 73.8396 16.0773C72.9553 16.0773 72.3658 16.5195 72.3027 17.2774H68.7868C68.9131 14.9194 70.9342 13.4667 74.1554 13.4667ZM75.3344 20.7091V20.0564C73.1027 20.0564 72.0921 20.4775 72.0921 21.3196C72.0921 21.9512 72.6185 22.3723 73.5027 22.3723C74.6606 22.3723 75.3344 21.7407 75.3344 20.7091Z" fill="white"/>
<mask id="path-3-inside-1_14_21312" fill="white">
<path d="M86.9746 0.414062H215.488C217.814 0.414062 219.699 2.29924 219.699 4.62473V29.3747C219.699 31.7002 217.814 33.5854 215.488 33.5854H86.9746V0.414062Z"/>
</mask>
<path d="M86.9746 0.414062H215.488C217.814 0.414062 219.699 2.29924 219.699 4.62473V29.3747C219.699 31.7002 217.814 33.5854 215.488 33.5854H86.9746V0.414062Z" fill="white"/>
<path d="M86.9746 0.414062H219.699H86.9746ZM219.699 33.5854H86.9746H219.699ZM86.9746 33.5854V0.414062V33.5854ZM215.488 0.414062C218.976 0.414062 221.804 3.24183 221.804 6.73006V27.2694C221.804 30.7576 218.976 33.5854 215.488 33.5854C216.651 33.5854 217.593 31.7002 217.593 29.3747V4.62473C217.593 2.29924 216.651 0.414062 215.488 0.414062Z" fill="#E90000" mask="url(#path-3-inside-1_14_21312)"/>
<path d="M105.985 9.88766H111.122V24.625H107.227V15.4036L103.922 24.4145H102.027L98.7006 15.4036V24.625H94.8057V9.88766H99.9638L102.974 18.1195L105.985 9.88766ZM118.531 13.4667C121.963 13.4667 124.278 15.8036 124.278 19.1722C124.278 22.5407 121.963 24.8776 118.531 24.8776C115.099 24.8776 112.741 22.5407 112.741 19.1722C112.741 15.8036 115.099 13.4667 118.531 13.4667ZM118.51 22.0354C119.752 22.0354 120.51 20.9196 120.51 19.1722C120.51 17.4037 119.752 16.3089 118.51 16.3089C117.289 16.3089 116.51 17.4037 116.51 19.1722C116.51 20.9196 117.289 22.0354 118.51 22.0354ZM132.798 13.4667C135.093 13.4667 136.377 14.9194 136.377 17.4669V24.625H132.608V18.4564C132.608 17.109 132.103 16.4774 131.114 16.4774C130.04 16.4774 129.471 17.2563 129.471 18.8564V24.625H125.703V13.7194H129.219L129.429 15.3194C130.208 14.0983 131.324 13.4667 132.798 13.4667ZM144.479 16.3721H142.563V20.8775C142.563 21.6354 142.942 21.9512 143.721 21.9512C144.037 21.9512 144.353 21.9091 144.563 21.867V24.625C144.016 24.7513 143.258 24.8566 142.584 24.8566C139.995 24.8566 138.795 23.6987 138.795 21.1512V16.3721H137.489V13.7194H138.795V11.0245H142.437V13.7194H144.479V16.3721ZM151.363 13.4667C154.584 13.4667 156.268 14.9194 156.268 17.6774V24.625H152.879L152.668 23.2776C152.037 24.3303 150.963 24.8566 149.405 24.8566C147.005 24.8566 145.573 23.6144 145.573 21.5723C145.573 19.088 147.7 18.0143 152.521 18.0143V17.8248C152.521 16.6247 152.058 16.0773 151.047 16.0773C150.163 16.0773 149.574 16.5195 149.51 17.2774H145.994C146.121 14.9194 148.142 13.4667 151.363 13.4667ZM152.542 20.7091V20.0564C150.31 20.0564 149.3 20.4775 149.3 21.3196C149.3 21.9512 149.826 22.3723 150.71 22.3723C151.868 22.3723 152.542 21.7407 152.542 20.7091ZM161.874 24.625H158.106V9.67713H161.874V24.625ZM167.234 24.625H163.719V9.67713H167.487V15.2984C168.098 14.1615 169.361 13.4667 170.856 13.4667C173.529 13.4667 175.34 15.7615 175.34 19.1722C175.34 22.6249 173.55 24.8776 170.856 24.8776C169.34 24.8776 168.077 24.1829 167.445 23.0249L167.234 24.625ZM167.403 19.1722C167.403 20.9407 168.203 22.0354 169.466 22.0354C170.708 22.0354 171.508 20.9196 171.508 19.1722C171.508 17.4248 170.708 16.3089 169.466 16.3089C168.203 16.3089 167.403 17.4037 167.403 19.1722ZM182.121 13.4667C185.342 13.4667 187.026 14.9194 187.026 17.6774V24.625H183.637L183.426 23.2776C182.794 24.3303 181.721 24.8566 180.163 24.8566C177.763 24.8566 176.331 23.6144 176.331 21.5723C176.331 19.088 178.457 18.0143 183.279 18.0143V17.8248C183.279 16.6247 182.815 16.0773 181.805 16.0773C180.921 16.0773 180.331 16.5195 180.268 17.2774H176.752C176.878 14.9194 178.899 13.4667 182.121 13.4667ZM183.3 20.7091V20.0564C181.068 20.0564 180.057 20.4775 180.057 21.3196C180.057 21.9512 180.584 22.3723 181.468 22.3723C182.626 22.3723 183.3 21.7407 183.3 20.7091ZM195.937 13.4667C198.232 13.4667 199.516 14.9194 199.516 17.4669V24.625H195.748V18.4564C195.748 17.109 195.242 16.4774 194.253 16.4774C193.179 16.4774 192.611 17.2563 192.611 18.8564V24.625H188.842V13.7194H192.358L192.569 15.3194C193.348 14.0983 194.464 13.4667 195.937 13.4667ZM206.671 13.4667C210.103 13.4667 212.419 15.8036 212.419 19.1722C212.419 22.5407 210.103 24.8776 206.671 24.8776C203.239 24.8776 200.881 22.5407 200.881 19.1722C200.881 15.8036 203.239 13.4667 206.671 13.4667ZM206.65 22.0354C207.892 22.0354 208.65 20.9196 208.65 19.1722C208.65 17.4037 207.892 16.3089 206.65 16.3089C205.429 16.3089 204.65 17.4037 204.65 19.1722C204.65 20.9196 205.429 22.0354 206.65 22.0354Z" fill="#E90000"/>
</svg>
