<svg width="293" height="45" viewBox="0 0 293 45" fill="none" xmlns="http://www.w3.org/2000/svg">
<path d="M0 5.61423C0 2.51358 2.51357 0 5.61422 0H115.966V44.2284H5.61422C2.51357 44.2284 0 41.7149 0 38.6142V5.61423Z" fill="black"/>
<path d="M22.0655 11.9645L28.9149 31.6143H23.6936L22.655 28.3019H15.5811L14.5425 31.6143H9.32123L16.1706 11.9645H22.0655ZM16.5916 24.5403H21.6445L19.1181 16.3997L16.5916 24.5403ZM39.9098 16.7366C42.9695 16.7366 44.6819 18.6735 44.6819 22.0701V31.6143H39.6571V23.3894C39.6571 21.5929 38.9834 20.7507 37.6641 20.7507C36.2324 20.7507 35.4745 21.7894 35.4745 23.9228V31.6143H30.4498V17.0734H35.1377L35.4184 19.2068C36.457 17.5787 37.9448 16.7366 39.9098 16.7366ZM62.0254 31.6143H57.3375L57.0568 29.4809C56.2147 31.0248 54.5304 31.9511 52.5093 31.9511C48.9162 31.9511 46.5302 28.9475 46.5302 24.3438C46.5302 19.7963 48.9443 16.7366 52.5093 16.7366C54.5024 16.7366 56.1866 17.6629 57.0007 19.1788V11.6838H62.0254V31.6143ZM57.113 24.3438C57.113 21.9859 56.0463 20.5262 54.362 20.5262C52.7058 20.5262 51.6391 22.0139 51.6391 24.3438C51.6391 26.6737 52.7058 28.1615 54.362 28.1615C56.0463 28.1615 57.113 26.7018 57.113 24.3438ZM74.126 16.9331V21.4525C73.8453 21.3683 73.4804 21.3122 73.0032 21.3122C70.7294 21.3122 69.4101 22.7157 69.4101 25.1579V31.6143H64.3854V17.0734H69.0732L69.354 19.2349C70.0838 17.6629 71.4031 16.7927 72.9471 16.7927C73.3681 16.7927 73.7892 16.8488 74.126 16.9331ZM89.838 24.5123V25.3825H79.8727C79.8727 27.2352 80.8833 28.3861 82.5956 28.3861C83.6623 28.3861 84.4764 27.9089 84.8413 26.9825H89.7538C89.1923 29.9581 86.1607 31.9511 82.4833 31.9511C77.8235 31.9511 74.8199 28.8914 74.8199 24.3438C74.8199 19.7682 77.7113 16.7366 82.3991 16.7366C87.1431 16.7366 89.838 19.7121 89.838 24.5123ZM79.9289 22.5754H84.8975C84.701 21.0876 83.8308 20.2174 82.4553 20.2174C81.0236 20.2174 80.0973 21.1157 79.9289 22.5754ZM98.8751 16.7366C103.17 16.7366 105.416 18.6735 105.416 22.3508V31.6143H100.896L100.616 29.8177C99.7734 31.2213 98.3418 31.923 96.2645 31.923C93.0644 31.923 91.1556 30.2668 91.1556 27.5439C91.1556 24.2316 93.9907 22.7999 100.419 22.7999V22.5473C100.419 20.9472 99.8015 20.2174 98.4541 20.2174C97.2751 20.2174 96.4891 20.8069 96.4049 21.8174H91.717C91.8854 18.6735 94.5802 16.7366 98.8751 16.7366ZM100.447 26.393V25.5228C97.4716 25.5228 96.1242 26.0842 96.1242 27.2071C96.1242 28.0492 96.8259 28.6106 98.0049 28.6106C99.5488 28.6106 100.447 27.7685 100.447 26.393Z" fill="#FF4848"/>
<mask id="path-3-inside-1_101_53" fill="white">
<path d="M115.965 0H287.316C290.417 0 292.93 2.51357 292.93 5.61422V38.6142C292.93 41.7149 290.417 44.2284 287.316 44.2284H115.965V0Z"/>
</mask>
<path d="M115.965 0H287.316C290.417 0 292.93 2.51357 292.93 5.61422V38.6142C292.93 41.7149 290.417 44.2284 287.316 44.2284H115.965V0Z" fill="#FB5A5A"/>
<path d="M115.965 0H292.93H115.965ZM292.93 44.2284H115.965H292.93ZM115.965 44.2284V0V44.2284ZM287.316 0C291.967 0 295.737 3.77036 295.737 8.42134V35.8071C295.737 40.4581 291.967 44.2284 287.316 44.2284H287.316C288.866 44.2284 290.123 41.7149 290.123 38.6142V5.61422C290.123 2.51357 288.866 0 287.316 0H287.316Z" fill="black" mask="url(#path-3-inside-1_101_53)"/>
<path d="M141.315 11.9644H148.164V31.6142H142.971V19.319L138.564 31.3335H136.037L131.602 19.319V31.6142H126.409V11.9644H133.286L137.301 22.9402L141.315 11.9644ZM158.042 16.7365C162.618 16.7365 165.706 19.8524 165.706 24.3438C165.706 28.8352 162.618 31.9511 158.042 31.9511C153.467 31.9511 150.323 28.8352 150.323 24.3438C150.323 19.8524 153.467 16.7365 158.042 16.7365ZM158.014 28.1614C159.671 28.1614 160.681 26.6737 160.681 24.3438C160.681 21.9858 159.671 20.5261 158.014 20.5261C156.386 20.5261 155.348 21.9858 155.348 24.3438C155.348 26.6737 156.386 28.1614 158.014 28.1614ZM177.065 16.7365C180.125 16.7365 181.837 18.6734 181.837 22.07V31.6142H176.812V23.3894C176.812 21.5928 176.139 20.7507 174.819 20.7507C173.388 20.7507 172.63 21.7893 172.63 23.9227V31.6142H167.605V17.0734H172.293L172.574 19.2068C173.612 17.5786 175.1 16.7365 177.065 16.7365ZM192.64 20.6103H190.086V26.6175C190.086 27.6281 190.591 28.0492 191.63 28.0492C192.051 28.0492 192.472 27.993 192.752 27.9369V31.6142C192.023 31.7826 191.012 31.923 190.114 31.923C186.661 31.923 185.061 30.3791 185.061 26.9825V20.6103H183.32V17.0734H185.061V13.4803H189.917V17.0734H192.64V20.6103ZM201.819 16.7365C206.114 16.7365 208.359 18.6734 208.359 22.3507V31.6142H203.84L203.559 29.8176C202.717 31.2212 201.285 31.923 199.208 31.923C196.008 31.923 194.099 30.2668 194.099 27.5439C194.099 24.2315 196.934 22.7999 203.363 22.7999V22.5472C203.363 20.9472 202.745 20.2173 201.398 20.2173C200.219 20.2173 199.433 20.8068 199.348 21.8174H194.661C194.829 18.6734 197.524 16.7365 201.819 16.7365ZM203.391 26.393V25.5228C200.415 25.5228 199.068 26.0842 199.068 27.207C199.068 28.0492 199.77 28.6106 200.948 28.6106C202.492 28.6106 203.391 27.7685 203.391 26.393ZM215.834 31.6142H210.809V11.6837H215.834V31.6142ZM222.981 31.6142H218.293V11.6837H223.317V19.1787C224.132 17.6628 225.816 16.7365 227.809 16.7365C231.374 16.7365 233.788 19.7963 233.788 24.3438C233.788 28.9474 231.402 31.9511 227.809 31.9511C225.788 31.9511 224.103 31.0247 223.261 29.4808L222.981 31.6142ZM223.205 24.3438C223.205 26.7018 224.272 28.1614 225.956 28.1614C227.612 28.1614 228.679 26.6737 228.679 24.3438C228.679 22.0139 227.612 20.5261 225.956 20.5261C224.272 20.5261 223.205 21.9858 223.205 24.3438ZM242.829 16.7365C247.124 16.7365 249.369 18.6734 249.369 22.3507V31.6142H244.85L244.569 29.8176C243.727 31.2212 242.295 31.923 240.218 31.923C237.018 31.923 235.109 30.2668 235.109 27.5439C235.109 24.2315 237.944 22.7999 244.373 22.7999V22.5472C244.373 20.9472 243.755 20.2173 242.408 20.2173C241.229 20.2173 240.443 20.8068 240.359 21.8174H235.671C235.839 18.6734 238.534 16.7365 242.829 16.7365ZM244.401 26.393V25.5228C241.425 25.5228 240.078 26.0842 240.078 27.207C240.078 28.0492 240.78 28.6106 241.959 28.6106C243.503 28.6106 244.401 27.7685 244.401 26.393ZM261.251 16.7365C264.311 16.7365 266.023 18.6734 266.023 22.07V31.6142H260.998V23.3894C260.998 21.5928 260.325 20.7507 259.005 20.7507C257.574 20.7507 256.816 21.7893 256.816 23.9227V31.6142H251.791V17.0734H256.479L256.76 19.2068C257.798 17.5786 259.286 16.7365 261.251 16.7365ZM275.563 16.7365C280.138 16.7365 283.226 19.8524 283.226 24.3438C283.226 28.8352 280.138 31.9511 275.563 31.9511C270.987 31.9511 267.843 28.8352 267.843 24.3438C267.843 19.8524 270.987 16.7365 275.563 16.7365ZM275.535 28.1614C277.191 28.1614 278.202 26.6737 278.202 24.3438C278.202 21.9858 277.191 20.5261 275.535 20.5261C273.907 20.5261 272.868 21.9858 272.868 24.3438C272.868 26.6737 273.907 28.1614 275.535 28.1614Z" fill="black"/>
</svg>
