<svg width="314" height="314" viewBox="0 0 314 314" fill="none" xmlns="http://www.w3.org/2000/svg">
<path d="M157.008 65.4174C157.023 60.1845 155.992 55.0013 153.975 50.1727C151.958 45.3441 148.996 40.9676 145.263 37.3006C141.529 33.6336 137.101 30.7501 132.237 28.8198C127.373 26.8895 122.172 25.9512 116.94 26.0603C111.708 26.1693 106.551 27.3235 101.772 29.4548C96.9927 31.5861 92.6879 34.6517 89.1107 38.471C85.5335 42.2904 82.7562 46.7865 80.9421 51.695C79.128 56.6034 78.3137 61.8251 78.5472 67.0528C70.8568 69.0302 63.7173 72.7316 57.6692 77.8768C51.6212 83.022 46.8232 89.476 43.6388 96.75C40.4544 104.024 38.967 111.927 39.2892 119.861C39.6114 127.795 41.7349 135.552 45.4987 142.544C38.8809 147.92 33.6769 154.832 30.3396 162.678C27.0022 170.524 25.6324 179.067 26.3495 187.563C27.0665 196.059 29.8486 204.252 34.4538 211.428C39.059 218.604 45.3478 224.546 52.773 228.737C51.8561 235.831 52.4033 243.038 54.3808 249.912C56.3583 256.787 59.7242 263.183 64.2705 268.706C68.8168 274.228 74.447 278.76 80.8135 282.022C87.18 285.283 94.1475 287.205 101.286 287.668C108.424 288.132 115.581 287.127 122.316 284.715C129.051 282.304 135.219 278.537 140.441 273.649C145.663 268.76 149.828 262.852 152.677 256.291C155.526 249.73 157 242.654 157.008 235.501V65.4174Z" stroke="#FB5A5A" stroke-width="26.1667" stroke-linecap="round" stroke-linejoin="round"/>
<path d="M156.996 65.4174C156.981 60.1845 158.012 55.0013 160.029 50.1727C162.046 45.3441 165.008 40.9676 168.742 37.3006C172.475 33.6336 176.904 30.7501 181.768 28.8198C186.631 26.8895 191.832 25.9512 197.064 26.0603C202.296 26.1693 207.453 27.3235 212.232 29.4548C217.012 31.5861 221.316 34.6517 224.894 38.471C228.471 42.2904 231.248 46.7865 233.062 51.695C234.876 56.6034 235.69 61.8251 235.457 67.0528C243.147 69.0302 250.287 72.7316 256.335 77.8768C262.383 83.022 267.181 89.476 270.365 96.75C273.55 104.024 275.037 111.927 274.715 119.861C274.393 127.795 272.269 135.552 268.506 142.544C275.123 147.92 280.327 154.832 283.665 162.678C287.002 170.524 288.372 179.067 287.655 187.563C286.938 196.059 284.156 204.252 279.55 211.428C274.945 218.604 268.656 224.546 261.231 228.737C262.148 235.831 261.601 243.038 259.623 249.912C257.646 256.787 254.28 263.183 249.734 268.706C245.187 274.228 239.557 278.76 233.191 282.022C226.824 285.283 219.857 287.205 212.718 287.668C205.58 288.132 198.423 287.127 191.688 284.715C184.954 282.304 178.785 278.537 173.563 273.649C168.341 268.76 164.177 262.852 161.327 256.291C158.478 249.73 157.004 242.654 156.996 235.501V65.4174Z" stroke="#FB5A5A" stroke-width="26.1667" stroke-linecap="round" stroke-linejoin="round"/>
<path d="M196.24 170.084C185.256 166.219 175.664 159.185 168.677 149.87C161.691 140.555 157.624 129.377 156.99 117.75C156.356 129.377 152.288 140.555 145.302 149.87C138.316 159.185 128.724 166.219 117.74 170.084M230.243 85.0418C233.41 79.5545 235.201 73.3822 235.464 67.0522M78.529 67.0522C78.7877 73.3811 80.5743 79.5533 83.7361 85.0418M45.4805 142.556C47.8739 140.607 50.4352 138.873 53.1342 137.375M260.845 137.375C263.544 138.873 266.106 140.607 268.499 142.556M78.4897 235.5C69.4731 235.504 60.6083 233.179 52.7548 228.749M261.225 228.749C253.371 233.179 244.506 235.504 235.49 235.5" stroke="#FB5A5A" stroke-width="26.1667" stroke-linecap="round" stroke-linejoin="round"/>
</svg>
