<svg width="150" height="151" viewBox="0 0 150 151" fill="none" xmlns="http://www.w3.org/2000/svg">
<g clip-path="url(#clip0_14_15164)">
<path d="M39.999 75.3691L69.999 100.369L109.999 50.3691M74.999 145.369C65.8065 145.369 56.704 143.559 48.2112 140.041C39.7184 136.523 32.0016 131.367 25.5015 124.867C19.0014 118.367 13.8453 110.65 10.3275 102.157C6.80963 93.6642 4.99902 84.5617 4.99902 75.3691C4.99902 66.1766 6.80963 57.0741 10.3275 48.5813C13.8453 40.0885 19.0014 32.3718 25.5015 25.8717C32.0016 19.3716 39.7184 14.2154 48.2112 10.6976C56.704 7.17974 65.8065 5.36914 74.999 5.36914C93.5642 5.36914 111.369 12.7441 124.496 25.8717C137.624 38.9992 144.999 56.804 144.999 75.3691C144.999 93.9343 137.624 111.739 124.496 124.867C111.369 137.994 93.5642 145.369 74.999 145.369Z" stroke="#E90000" stroke-width="10"/>
</g>
<defs>
<clipPath id="clip0_14_15164">
<rect width="150" height="150" fill="white" transform="translate(0 0.369141)"/>
</clipPath>
</defs>
</svg>
