<svg width="165" height="69" viewBox="0 0 165 69" fill="none" xmlns="http://www.w3.org/2000/svg">
<g clip-path="url(#clip0_14_20375)">
<path fill-rule="evenodd" clip-rule="evenodd" d="M102.557 31.3912C103.945 31.6434 105.333 32.3998 106.468 33.2823C107.729 34.2909 108.612 35.5517 109.495 37.3167C110.126 38.8295 110.505 40.4685 110.505 42.1074V42.1075C110.505 43.3682 110.505 44.755 110.126 46.1418C109.748 47.5286 109.243 48.7893 108.739 49.924L108.738 49.9241C108.234 51.1848 107.729 52.4454 106.973 53.5801C106.383 54.522 105.574 55.4639 104.853 56.3032C104.802 56.3625 104.752 56.4214 104.702 56.4797C103.819 57.6144 102.81 58.7491 101.8 59.7576C100.791 60.6401 99.656 61.5227 98.6468 62.2791C97.6376 63.0355 96.6285 63.792 95.367 64.5484C95.0705 64.7262 94.781 64.904 94.4968 65.0785C93.5719 65.6465 92.7034 66.1798 91.8349 66.5656C90.5734 67.1959 89.312 67.7002 88.0505 68.0784C87.9431 68.1077 87.8365 68.137 87.7305 68.1661C86.4669 68.5129 85.294 68.8349 84.0138 68.8349C82.7523 68.8349 81.3647 68.5827 79.9771 68.0784C79.7042 67.9875 79.4167 67.8966 79.1181 67.8022C78.1747 67.5038 77.1206 67.1705 76.0665 66.6916C75.4782 66.3976 74.847 66.0179 74.1979 65.6275C73.7336 65.3482 73.2602 65.0634 72.7867 64.8005C71.5253 64.0441 70.2638 63.1616 69.1285 62.2791C67.9932 61.3966 66.6055 60.2619 65.5964 59.2533C64.7133 58.4969 63.8303 57.6144 63.0734 56.7319C62.1904 55.7233 61.4335 54.5886 60.6766 53.454C60.4988 53.1577 60.3209 52.8684 60.1463 52.5844C59.5779 51.6599 59.0443 50.7919 58.6583 49.924C58.0276 48.6632 57.523 47.2764 57.2707 46.0157C56.8922 44.6289 56.7661 43.2421 56.7661 41.9814C56.7661 41.1706 56.8748 40.3961 56.9757 39.6771C57.063 39.0545 57.1445 38.4736 57.1445 37.947C57.6491 36.4342 58.2798 35.2995 58.9106 34.417C59.6675 33.4084 60.5505 32.3998 61.6858 31.6434C62.8211 30.7609 63.9565 30.1305 65.0918 29.6262C66.2271 29.248 67.4886 28.8698 69.0023 28.7437C70.0115 28.6176 71.273 28.6176 72.4083 28.7437C71.273 28.1134 70.1376 27.3569 69.1285 26.6005C67.9932 25.718 66.8578 24.7094 65.8487 23.4487C64.8395 22.0619 64.0826 20.8011 63.578 19.5404C63.0734 18.0275 62.8211 16.5147 62.8211 15.0018C62.8211 13.615 63.0734 12.1021 63.578 10.5892C64.0826 9.07636 64.7133 7.81563 65.5964 6.68098C66.3532 5.54632 67.3624 4.53774 68.6239 3.65523C69.7592 2.77272 71.0207 2.14236 72.4083 1.51199C73.5436 1.0077 74.8051 0.629484 76.5711 0.377338C77.9587 0.125193 79.3464 -0.126953 80.8601 -0.126953C82.3739 -0.126953 83.8876 -0.00087983 85.1491 0.251265C86.789 0.503411 88.0505 0.881629 89.1858 1.38592C90.8257 2.01628 91.961 2.89879 92.8441 3.65523C93.8532 4.66381 94.6101 5.79847 95.1147 7.18527C95.4932 8.31992 95.7455 9.58065 95.7455 11.3457C95.7455 12.7325 95.367 14.1193 94.8624 15.5061C94.2317 17.145 93.4748 18.4058 92.5918 19.2883C91.5826 20.4229 90.3211 21.1794 88.9335 21.8097C87.7982 22.1879 86.5367 22.4401 84.6445 22.4401C82.7523 22.4401 81.3647 21.8097 80.1032 20.6751C78.8418 19.5404 78.211 18.1536 78.211 16.2625C78.211 14.7496 78.5895 13.4889 79.3464 12.6064C80.3555 11.4717 81.2386 10.9675 82.6262 10.9675C84.1399 10.9675 84.8968 11.4717 85.5276 12.2282C85.7358 12.4363 85.9304 12.7545 86.1338 13.0873C86.5466 13.7622 86.9961 14.4975 87.6721 14.4975C89.1858 14.4975 90.3211 12.3543 90.3211 10.4632C90.3211 8.69814 89.9427 7.18527 89.1858 6.17669C88.4289 5.04203 87.1675 4.03345 85.7798 3.52916C84.3922 3.02487 82.7523 2.89879 81.4909 2.89879C79.9771 2.89879 78.5895 3.27701 77.328 4.03345C76.1927 4.78989 75.0574 5.6724 74.1743 6.93312C73.4175 7.94171 72.7867 9.32851 72.2821 10.7153C71.9037 12.1021 71.6514 13.615 71.6514 15.1279C71.6514 16.2625 71.7776 17.2711 72.0298 18.4058C72.2821 19.5404 72.5344 20.549 73.039 21.5576C73.6698 22.8183 74.5528 23.953 76.0665 25.4658C76.2397 25.6389 76.398 25.8119 76.5516 25.9799C76.8457 26.3014 77.1227 26.6042 77.4542 26.8526L79.9771 29.3741C81.3647 30.7609 82.7523 32.5259 82.7523 34.6691C82.7523 35.8038 82.2477 36.6863 81.4909 36.6863C80.9863 36.6863 80.6078 36.4342 80.2294 35.9299C79.4725 35.0474 78.4633 34.5431 77.7065 34.2909C76.8234 33.9127 75.9404 33.7866 74.6789 33.7866C73.039 33.7866 71.6514 34.1649 70.5161 34.9213C69.3808 35.8038 68.3716 36.8124 67.7409 38.3253C67.1101 39.7121 66.8578 41.0989 66.8578 42.6117C66.8578 43.9985 66.984 45.3853 67.7409 46.7721C68.2454 48.1589 68.75 49.4197 69.5069 50.6804C70.2638 52.0672 71.0207 53.2018 71.9037 54.3365C72.5344 55.0929 73.2913 55.9754 74.0482 56.7319C74.2954 56.8966 74.4888 57.1152 74.6987 57.3524C74.8101 57.4782 74.9262 57.6093 75.0574 57.7405C75.9404 58.749 76.8234 59.6316 77.8326 60.6401C78.1878 60.9557 78.5183 61.2589 78.8396 61.5536C79.5451 62.2009 80.2062 62.8073 80.9863 63.4137C82.2477 64.4223 83.3831 64.9266 84.1399 64.9266C84.7707 64.9266 86.1583 64.2962 87.1675 63.4137C87.5838 63.0438 87.9833 62.7078 88.372 62.3809C89.043 61.8164 89.6821 61.2788 90.3211 60.6401C90.6575 60.3039 91.0079 59.9678 91.3583 59.6316C92.0592 58.9592 92.76 58.2868 93.3487 57.6144C93.5895 57.3436 93.8303 57.08 94.0677 56.8201C94.8251 55.9912 95.5476 55.2004 96.1239 54.3365C97.014 53.1133 97.7078 51.8902 98.2054 51.0131C98.2719 50.8957 98.335 50.7845 98.3945 50.6804C99.0253 49.4197 99.5298 48.1589 99.9083 46.6461C100.287 45.0071 100.539 43.7464 100.539 42.4857C100.539 41.0989 100.161 39.7121 99.5299 38.1992C98.773 36.6863 97.8899 35.5517 96.7546 34.7952C95.4931 34.0388 94.2317 33.6606 92.5918 33.6606C90.6996 33.6606 89.0597 34.2909 87.7982 35.5517C87.1675 36.182 86.6629 36.6863 86.0321 36.6863C85.4014 36.6863 85.023 35.9299 85.023 34.417C85.023 32.9041 85.5276 31.6434 86.4106 30.6348C87.1675 29.7523 88.3028 28.9959 89.8165 28.3655C90.6996 27.8612 91.7087 27.6091 92.7179 27.3569C93.0963 27.2308 93.4433 27.1363 93.7902 27.0417C94.1371 26.9472 94.484 26.8526 94.8624 26.7266C95.3039 26.6005 95.7769 26.4744 96.25 26.3484C96.723 26.2223 97.1961 26.0962 97.6377 25.9701L99.1514 25.5919C100.034 25.4658 101.044 25.2137 101.927 24.9615C103.44 24.5833 104.702 23.953 106.089 23.1965C107.477 22.1879 108.108 21.0533 108.108 19.6665C108.108 19.4143 107.982 18.784 107.477 18.784C107.406 18.784 107.296 18.8635 107.168 18.9555C107.068 19.0274 106.957 19.1069 106.846 19.1622C106.342 19.5404 105.585 20.0447 104.197 20.0447C102.684 20.0447 101.548 19.5404 100.791 18.6579C100.034 17.7754 99.656 16.5147 99.656 15.1279C99.656 13.9932 100.161 12.8585 101.17 11.976C101.927 11.2196 103.188 10.7153 104.323 10.7153C105.711 10.7153 106.846 11.0935 107.856 11.976C108.991 12.8585 109.748 13.8671 110.126 15.1279C110.505 16.3886 110.757 17.6493 110.757 18.91C110.757 20.1708 110.505 21.5576 110.126 22.9444C109.622 24.5833 109.117 25.718 108.486 26.7266C107.856 27.8612 106.846 28.8698 105.711 29.7523C104.828 30.5087 103.693 31.013 102.557 31.3912ZM47.4312 4.15952V63.6659C47.4312 64.6745 46.6743 65.4309 45.539 65.3048H40.1147C39.2316 65.3048 38.4748 64.5484 38.4748 63.6659V37.821H8.70413V63.6659C8.70413 64.5484 7.94725 65.3048 7.06422 65.3048H1.63991C0.756881 65.3048 0 64.5484 0 63.6659V4.15952C0 3.27701 0.756881 2.52058 1.63991 2.52058H7.19037C8.07339 2.52058 8.83027 3.27701 8.83027 4.15952V29.1219H38.7271V4.15952C38.7271 3.27701 39.4839 2.52058 40.367 2.52058H45.7913C46.6743 2.52058 47.4312 3.27701 47.4312 4.15952ZM145.573 56.7319C152.259 56.7319 155.539 52.0672 155.539 47.2764C155.539 42.3596 152.133 37.821 145.573 37.821H129.174V56.7319H145.573ZM144.06 28.7437C150.241 28.7437 153.016 24.4572 153.016 19.9186C153.016 15.5061 150.115 11.2196 144.06 11.2196H129.3V28.7437H144.06ZM162.477 19.5404C162.477 24.079 160.206 29.7523 156.044 32.652C160.585 34.417 165 39.2078 165.126 47.2764C165.126 57.8665 158.44 65.4309 145.321 65.4309H121.353C120.596 65.4309 119.966 64.8005 119.966 64.0441V3.90738C119.966 3.15094 120.596 2.52058 121.353 2.52058H144.69C155.287 2.52058 162.477 9.45458 162.477 19.5404Z" fill="#005335"/>
</g>
<defs>
<clipPath id="clip0_14_20375">
<rect width="165" height="68.7097" fill="white"/>
</clipPath>
</defs>
</svg>
