<svg width="150" height="151" viewBox="0 0 150 151" fill="none" xmlns="http://www.w3.org/2000/svg">
<path d="M133.189 43.3599L107.01 17.1744C106.139 16.3036 105.106 15.6128 103.968 15.1416C102.831 14.6703 101.611 14.4277 100.38 14.4277C99.1486 14.4277 97.9293 14.6703 96.7918 15.1416C95.6542 15.6128 94.6206 16.3036 93.75 17.1744L21.4981 89.4322C20.6238 90.2996 19.9306 91.3321 19.4588 92.4698C18.987 93.6074 18.7461 94.8275 18.75 96.0591V122.245C18.75 124.731 19.7378 127.116 21.4959 128.874C23.2541 130.632 25.6386 131.62 28.125 131.62H54.3106C55.5422 131.624 56.7623 131.383 57.8999 130.911C59.0376 130.439 60.0702 129.746 60.9375 128.872L133.189 56.6197C134.06 55.7491 134.751 54.7155 135.222 53.5779C135.694 52.4404 135.936 51.2211 135.936 49.9898C135.936 48.7585 135.694 47.5392 135.222 46.4016C134.751 45.2641 134.06 44.2305 133.189 43.3599ZM30.0645 94.1197L83.004 41.1802L92.7774 50.9595L39.8438 103.893L30.0645 94.1197ZM28.125 105.434L44.9356 122.245H28.125V105.434ZM56.25 120.305L46.4707 110.526L99.4102 57.5865L109.184 67.3658L56.25 120.305Z" fill="#E90000"/>
</svg>
