<svg width="150" height="151" viewBox="0 0 150 151" fill="none" xmlns="http://www.w3.org/2000/svg">
<path d="M28.125 103.495C18.75 111.37 15.625 134.745 15.625 134.745C15.625 134.745 39 131.62 46.875 122.245C51.3125 116.995 51.25 108.933 46.3125 104.058C43.8832 101.739 40.6831 100.399 37.3264 100.296C33.9697 100.192 30.693 101.331 28.125 103.495Z" stroke="#E90000" stroke-width="12.5" stroke-linecap="round" stroke-linejoin="round"/>
<path d="M75 94.1207L56.25 75.3707C59.5759 66.7421 63.7638 58.4711 68.75 50.6832C76.0324 39.0394 86.1726 29.4522 98.2063 22.8338C110.24 16.2153 123.767 12.7855 137.5 12.8707C137.5 29.8707 132.625 59.7457 100 81.6207C92.1055 86.6127 83.7303 90.8003 75 94.1207Z" stroke="#E90000" stroke-width="12.5" stroke-linecap="round" stroke-linejoin="round"/>
<path d="M56.25 75.3652H25C25 75.3652 28.4375 56.4277 37.5 50.3652C47.625 43.6152 68.75 50.3652 68.75 50.3652" stroke="#E90000" stroke-width="12.5" stroke-linecap="round" stroke-linejoin="round"/>
<path d="M75 94.1191V125.369C75 125.369 93.9375 121.932 100 112.869C106.75 102.744 100 81.6191 100 81.6191" stroke="#E90000" stroke-width="12.5" stroke-linecap="round" stroke-linejoin="round"/>
</svg>
