<svg width="150" height="150" viewBox="0 0 150 150" fill="none" xmlns="http://www.w3.org/2000/svg">
<path d="M5.12534 120.02L30.464 94.6817L49.954 86.6295C43.4645 77.4009 39.9877 66.3911 40.0003 55.1092C40.0003 24.7821 64.673 0.109375 95.0001 0.109375C125.327 0.109375 150 24.7821 150 55.1092C150 85.4364 125.327 110.109 95.0001 110.109C83.6201 110.122 72.5193 106.585 63.2443 99.9913L55.213 119.429L29.8753 144.769C28.2503 146.394 26.3211 147.683 24.1979 148.562C22.0747 149.442 19.799 149.895 17.5009 149.895C15.2027 149.895 12.927 149.442 10.8037 148.563C8.68048 147.684 6.75122 146.395 5.12611 144.77C3.50101 143.145 2.21188 141.215 1.33235 139.092C0.452805 136.969 7.62939e-05 134.693 0 132.395C-7.62939e-05 130.097 0.452515 127.821 1.33192 125.698C2.21133 123.575 3.50032 121.645 5.12534 120.02ZM140 55.1092C140 30.2968 119.813 10.1094 95.0001 10.1094C70.1877 10.1094 50.0002 30.2968 50.0002 55.1092C50.0002 79.9217 70.1877 100.109 95.0001 100.109C119.813 100.109 140 79.9217 140 55.1092ZM12.1969 137.698C13.6045 139.102 15.5118 139.891 17.5003 139.891C19.4888 139.891 21.3961 139.102 22.8037 137.698L46.7324 113.769L54.1993 95.6957L36.1253 103.163L12.1963 127.091C10.792 128.499 10.0034 130.406 10.0035 132.395C10.0036 134.383 10.7924 136.29 12.1969 137.698Z" fill="#E90000"/>
</svg>
